<svg xmlns="http://www.w3.org/2000/svg" xmlns:xlink="http://www.w3.org/1999/xlink" width="1750" zoomAndPan="magnify" viewBox="0 0 1312.5 337.499995" height="450" preserveAspectRatio="xMidYMid meet" version="1.0"><defs><g/><clipPath id="33e891d260"><path d="M 83 4.773438 L 213 4.773438 L 213 249.183594 L 83 249.183594 Z M 83 4.773438 " clip-rule="nonzero"/></clipPath><clipPath id="9639ecaf59"><path d="M 271 1 L 794 1 L 794 273.652344 L 271 273.652344 Z M 271 1 " clip-rule="nonzero"/></clipPath><clipPath id="ad548b2c89"><path d="M 0.496094 58 L 134 58 L 134 209 L 0.496094 209 Z M 0.496094 58 " clip-rule="nonzero"/></clipPath><clipPath id="45f0662039"><rect x="0" width="523" y="0" height="273"/></clipPath><clipPath id="c0e381a3c8"><path d="M 835 1 L 1182.386719 1 L 1182.386719 273.652344 L 835 273.652344 Z M 835 1 " clip-rule="nonzero"/></clipPath><clipPath id="1e4fad2f06"><rect x="0" width="348" y="0" height="273"/></clipPath><clipPath id="94264caebb"><rect x="0" width="1183" y="0" height="274"/></clipPath></defs><g transform="matrix(1, 0, 0, 1, 70, 41)"><g clip-path="url(#94264caebb)"><g clip-path="url(#33e891d260)"><path fill="#3458ff" d="M 171.03125 4.773438 C 165.75 4.773438 163.46875 8.101562 161.574219 11.5 L 83.003906 150.835938 L 133.175781 242.882812 C 134.917969 246.019531 137.617188 249.613281 143.035156 249.613281 L 178.308594 249.613281 C 180.429688 249.613281 182.132812 248.8125 182.996094 247.320312 C 183.925781 245.808594 183.910156 243.816406 182.921875 241.859375 L 133.136719 150.949219 C 133.09375 150.875 133.09375 150.785156 133.136719 150.714844 L 211.328125 12.476562 C 212.304688 10.527344 212.328125 8.539062 211.402344 7.03125 C 210.496094 5.570312 208.824219 4.773438 206.699219 4.773438 Z M 171.03125 4.773438 " fill-opacity="1" fill-rule="nonzero"/></g><path fill="#18aaff" d="M 22.648438 53.082031 C 20.527344 53.082031 18.855469 53.886719 17.960938 55.339844 C 17.03125 56.851562 17.058594 58.835938 18.035156 60.800781 L 42.070312 102.019531 C 42.109375 102.101562 42.109375 102.179688 42.070312 102.261719 L 4.449219 168.523438 C 3.46875 170.472656 3.453125 172.460938 4.386719 173.972656 C 5.289062 175.425781 6.949219 176.230469 9.078125 176.230469 L 44.484375 176.230469 C 49.761719 176.230469 52.144531 172.757812 53.953125 169.496094 L 92.207031 102.144531 C 92.054688 101.902344 67.832031 59.824219 67.832031 59.824219 C 66.078125 56.6875 63.378906 53.082031 57.960938 53.082031 Z M 22.648438 53.082031 " fill-opacity="1" fill-rule="nonzero"/><g clip-path="url(#9639ecaf59)"><g transform="matrix(1, 0, 0, 1, 271, 1)"><g clip-path="url(#45f0662039)"><g clip-path="url(#ad548b2c89)"><g fill="#545454" fill-opacity="1"><g transform="translate(4.281934, 205.397174)"><g><path d="M 3.945312 -147.21875 L 42.722656 -147.21875 L 65.324219 -99.09375 L 62.269531 -97.660156 L 59.230469 -99.121094 L 82.359375 -147.21875 L 126.238281 -147.21875 L 85.117188 -76.148438 L 82.195312 -77.835938 L 85.167969 -79.429688 L 129.550781 3.371094 L 85.128906 3.371094 L 58.792969 -53.484375 L 61.855469 -54.902344 L 64.925781 -53.503906 L 39.011719 3.371094 L -4.90625 3.371094 L 38.644531 -77.976562 L 41.617188 -76.382812 L 38.671875 -74.738281 L -1.804688 -147.21875 Z M 3.945312 -140.472656 L 3.945312 -143.84375 L 6.886719 -145.488281 L 45.460938 -76.417969 L 3.699219 1.59375 L 0.726562 0 L 0.726562 -3.371094 L 36.84375 -3.371094 L 36.84375 0 L 33.773438 -1.398438 L 61.828125 -62.980469 L 90.34375 -1.417969 L 87.28125 0 L 87.28125 -3.371094 L 123.917969 -3.371094 L 123.917969 0 L 120.945312 1.59375 L 78.335938 -77.902344 L 117.46875 -145.535156 L 120.390625 -143.84375 L 120.390625 -140.472656 L 84.480469 -140.472656 L 84.480469 -143.84375 L 87.519531 -142.382812 L 62.234375 -89.800781 L 37.527344 -142.410156 L 40.578125 -143.84375 L 40.578125 -140.472656 Z M 3.945312 -140.472656 "/></g></g></g></g><g fill="#545454" fill-opacity="1"><g transform="translate(133.804154, 205.397174)"><g><path d="M 74.308594 -150.847656 C 85.027344 -150.847656 94.195312 -149.410156 101.8125 -146.53125 C 109.390625 -143.667969 116.335938 -139.625 122.644531 -134.402344 L 125.246094 -132.25 L 104.230469 -106.929688 L 101.636719 -109.070312 C 97.964844 -112.097656 93.90625 -114.496094 89.457031 -116.269531 C 85.085938 -118.011719 80.3125 -118.882812 75.140625 -118.882812 C 69.816406 -118.882812 64.953125 -117.371094 60.546875 -114.339844 C 56.125 -111.300781 52.550781 -106.40625 49.832031 -99.667969 C 47.019531 -92.703125 45.613281 -83.558594 45.613281 -72.234375 C 45.613281 -61.105469 46.96875 -52.089844 49.6875 -45.1875 C 52.300781 -38.535156 55.847656 -33.691406 60.324219 -30.65625 C 64.800781 -27.621094 69.949219 -26.101562 75.761719 -26.101562 C 82.367188 -26.101562 87.796875 -27.304688 92.058594 -29.710938 C 96.679688 -32.324219 100.925781 -35.167969 104.800781 -38.242188 L 107.457031 -40.347656 L 126.871094 -15.59375 L 124.730469 -13.476562 C 119.066406 -7.886719 112.125 -3.109375 103.898438 0.859375 C 95.550781 4.886719 85.546875 6.902344 73.894531 6.902344 C 60.285156 6.902344 48.191406 3.863281 37.601562 -2.210938 C 26.953125 -8.324219 18.625 -17.300781 12.613281 -29.140625 C 6.660156 -40.863281 3.683594 -55.226562 3.683594 -72.234375 C 3.683594 -88.84375 6.773438 -102.996094 12.949219 -114.699219 C 19.167969 -126.484375 27.644531 -135.460938 38.378906 -141.632812 C 49.070312 -147.777344 61.046875 -150.847656 74.308594 -150.847656 Z M 74.308594 -144.101562 C 62.246094 -144.101562 51.390625 -141.328125 41.742188 -135.78125 C 32.136719 -130.261719 24.527344 -122.183594 18.914062 -111.550781 C 13.257812 -100.832031 10.429688 -87.726562 10.429688 -72.234375 C 10.429688 -56.304688 13.164062 -42.957031 18.628906 -32.195312 C 24.03125 -21.550781 31.476562 -13.507812 40.960938 -8.0625 C 50.507812 -2.582031 61.484375 0.15625 73.894531 0.15625 C 84.519531 0.15625 93.542969 -1.636719 100.96875 -5.21875 C 108.519531 -8.859375 114.859375 -13.214844 119.992188 -18.28125 L 122.359375 -15.878906 L 119.707031 -13.796875 L 104.242188 -33.515625 L 106.898438 -35.597656 L 108.992188 -32.953125 C 104.84375 -29.664062 100.304688 -26.625 95.375 -23.839844 C 90.085938 -20.851562 83.550781 -19.355469 75.761719 -19.355469 C 68.566406 -19.355469 62.160156 -21.261719 56.539062 -25.074219 C 50.910156 -28.890625 46.535156 -34.769531 43.40625 -42.71875 C 40.378906 -50.414062 38.867188 -60.253906 38.867188 -72.234375 C 38.867188 -84.433594 40.4375 -94.417969 43.574219 -102.191406 C 46.804688 -110.1875 51.1875 -116.089844 56.726562 -119.898438 C 62.285156 -123.71875 68.421875 -125.628906 75.140625 -125.628906 C 81.175781 -125.628906 86.78125 -124.597656 91.957031 -122.535156 C 97.054688 -120.503906 101.714844 -117.75 105.929688 -114.273438 L 103.785156 -111.671875 L 101.1875 -113.824219 L 117.898438 -133.960938 L 120.492188 -131.804688 L 118.34375 -129.207031 C 112.609375 -133.949219 106.304688 -137.621094 99.425781 -140.222656 C 92.578125 -142.808594 84.207031 -144.101562 74.308594 -144.101562 Z M 74.308594 -144.101562 "/></g></g></g><g fill="#545454" fill-opacity="1"><g transform="translate(263.326374, 205.397174)"><g><path d="M 76.332031 0 L 76.332031 -60.609375 L 79.707031 -60.609375 L 79.707031 -57.238281 L 44.835938 -57.238281 L 44.835938 -60.609375 L 48.207031 -60.609375 L 48.207031 3.371094 L 7.421875 3.371094 L 7.421875 -147.21875 L 48.207031 -147.21875 L 48.207031 -88.632812 L 44.835938 -88.632812 L 44.835938 -92.003906 L 79.707031 -92.003906 L 79.707031 -88.632812 L 76.332031 -88.632812 L 76.332031 -147.21875 L 117.121094 -147.21875 L 117.121094 3.371094 L 76.332031 3.371094 Z M 83.078125 0 L 79.707031 0 L 79.707031 -3.371094 L 113.746094 -3.371094 L 113.746094 0 L 110.375 0 L 110.375 -143.84375 L 113.746094 -143.84375 L 113.746094 -140.472656 L 79.707031 -140.472656 L 79.707031 -143.84375 L 83.078125 -143.84375 L 83.078125 -85.257812 L 41.460938 -85.257812 L 41.460938 -143.84375 L 44.835938 -143.84375 L 44.835938 -140.472656 L 10.792969 -140.472656 L 10.792969 -143.84375 L 14.167969 -143.84375 L 14.167969 0 L 10.792969 0 L 10.792969 -3.371094 L 44.835938 -3.371094 L 44.835938 0 L 41.460938 0 L 41.460938 -63.984375 L 83.078125 -63.984375 Z M 83.078125 0 "/></g></g></g><g fill="#545454" fill-opacity="1"><g transform="translate(392.848595, 205.397174)"><g><path d="M 67.5625 6.902344 C 53.292969 6.902344 41.21875 3.84375 31.332031 -2.269531 C 21.386719 -8.421875 13.871094 -17.445312 8.78125 -29.339844 C 3.792969 -41.007812 1.296875 -55.304688 1.296875 -72.234375 C 1.296875 -84.878906 3.078125 -96.074219 6.640625 -105.824219 C 10.226562 -115.644531 15.230469 -123.890625 21.648438 -130.5625 C 28.070312 -137.242188 35.554688 -142.296875 44.097656 -145.730469 C 52.59375 -149.140625 61.730469 -150.847656 71.507812 -150.847656 C 82.507812 -150.847656 91.828125 -149.125 99.464844 -145.671875 C 107.007812 -142.261719 113.71875 -137.765625 119.597656 -132.175781 L 122.0625 -129.832031 L 99.601562 -106.585938 L 97.183594 -108.734375 C 93.070312 -112.390625 89.15625 -115.082031 85.441406 -116.8125 C 81.882812 -118.46875 77.789062 -119.300781 73.167969 -119.300781 C 68.828125 -119.300781 64.859375 -118.453125 61.265625 -116.765625 C 57.730469 -115.101562 54.625 -112.472656 51.953125 -108.878906 C 49.203125 -105.183594 47.054688 -100.347656 45.503906 -94.375 C 43.917969 -88.253906 43.121094 -80.800781 43.121094 -72.027344 C 43.121094 -59.808594 44.101562 -50.140625 46.0625 -43.03125 C 47.90625 -36.351562 50.605469 -31.628906 54.164062 -28.871094 C 57.707031 -26.125 62.277344 -24.753906 67.875 -24.753906 C 70.96875 -24.753906 73.863281 -25.113281 76.550781 -25.832031 C 79.292969 -26.566406 81.839844 -27.535156 84.183594 -28.738281 L 85.726562 -25.738281 L 82.351562 -25.738281 L 82.351562 -58.636719 L 85.726562 -58.636719 L 85.726562 -55.265625 L 64.730469 -55.265625 L 60.472656 -85.882812 L 121.269531 -85.882812 L 121.269531 -9.117188 L 119.664062 -8.128906 C 112.234375 -3.554688 104.253906 0.0859375 95.726562 2.800781 C 87.125 5.535156 77.738281 6.902344 67.5625 6.902344 Z M 67.5625 0.15625 C 77.039062 0.15625 85.746094 -1.105469 93.679688 -3.628906 C 101.6875 -6.175781 109.167969 -9.589844 116.128906 -13.875 L 117.898438 -11 L 114.523438 -11 L 114.523438 -82.507812 L 117.898438 -82.507812 L 117.898438 -79.136719 L 64.347656 -79.136719 L 64.347656 -82.507812 L 67.6875 -82.972656 L 71.007812 -59.101562 L 67.667969 -58.636719 L 67.667969 -62.011719 L 89.097656 -62.011719 L 89.097656 -23.679688 L 87.265625 -22.738281 C 84.492188 -21.3125 81.5 -20.171875 78.292969 -19.3125 C 75.035156 -18.441406 71.558594 -18.007812 67.875 -18.007812 C 60.738281 -18.007812 54.792969 -19.851562 50.03125 -23.539062 C 45.289062 -27.214844 41.800781 -33.113281 39.558594 -41.238281 C 37.4375 -48.9375 36.375 -59.199219 36.375 -72.027344 C 36.375 -81.375 37.242188 -89.390625 38.976562 -96.070312 C 40.746094 -102.894531 43.265625 -108.503906 46.539062 -112.90625 C 49.886719 -117.40625 53.835938 -120.726562 58.394531 -122.871094 C 62.898438 -124.988281 67.820312 -126.046875 73.167969 -126.046875 C 78.785156 -126.046875 83.824219 -125.007812 88.289062 -122.929688 C 92.601562 -120.921875 97.058594 -117.871094 101.664062 -113.777344 L 99.425781 -111.257812 L 97 -113.601562 L 114.851562 -132.074219 L 117.277344 -129.730469 L 114.953125 -127.285156 C 109.625 -132.351562 103.535156 -136.429688 96.6875 -139.523438 C 89.933594 -142.578125 81.539062 -144.101562 71.507812 -144.101562 C 62.601562 -144.101562 54.300781 -142.558594 46.609375 -139.46875 C 38.964844 -136.398438 32.261719 -131.871094 26.507812 -125.886719 C 20.75 -119.898438 16.238281 -112.4375 12.976562 -103.507812 C 9.6875 -94.507812 8.042969 -84.082031 8.042969 -72.234375 C 8.042969 -56.226562 10.355469 -42.8125 14.984375 -31.996094 C 19.511719 -21.40625 26.144531 -13.410156 34.882812 -8.007812 C 43.679688 -2.566406 54.570312 0.15625 67.5625 0.15625 Z M 67.5625 0.15625 "/></g></g></g><g fill="#ffffff" fill-opacity="1"><g transform="translate(4.281934, 205.397174)"><g><path d="M 3.9375 -143.84375 L 40.578125 -143.84375 L 62.265625 -97.65625 L 84.484375 -143.84375 L 120.390625 -143.84375 L 82.1875 -77.828125 L 123.921875 0 L 87.28125 0 L 61.859375 -54.90625 L 36.84375 0 L 0.71875 0 L 41.609375 -76.390625 Z M 3.9375 -143.84375 "/></g></g></g><g fill="#ffffff" fill-opacity="1"><g transform="translate(133.804154, 205.397174)"><g><path d="M 74.3125 -147.46875 C 84.613281 -147.46875 93.378906 -146.101562 100.609375 -143.375 C 107.847656 -140.644531 114.472656 -136.785156 120.484375 -131.796875 L 103.78125 -111.671875 C 99.832031 -114.921875 95.472656 -117.492188 90.703125 -119.390625 C 85.929688 -121.296875 80.742188 -122.25 75.140625 -122.25 C 69.117188 -122.25 63.617188 -120.535156 58.640625 -117.109375 C 53.660156 -113.691406 49.679688 -108.296875 46.703125 -100.921875 C 43.722656 -93.554688 42.234375 -83.992188 42.234375 -72.234375 C 42.234375 -60.679688 43.671875 -51.253906 46.546875 -43.953125 C 49.421875 -36.648438 53.378906 -31.285156 58.421875 -27.859375 C 63.472656 -24.441406 69.253906 -22.734375 75.765625 -22.734375 C 82.953125 -22.734375 88.929688 -24.082031 93.703125 -26.78125 C 98.484375 -29.476562 102.878906 -32.414062 106.890625 -35.59375 L 122.359375 -15.875 C 116.960938 -10.550781 110.316406 -5.984375 102.421875 -2.171875 C 94.535156 1.628906 85.023438 3.53125 73.890625 3.53125 C 60.878906 3.53125 49.34375 0.644531 39.28125 -5.125 C 29.21875 -10.90625 21.332031 -19.414062 15.625 -30.65625 C 9.914062 -41.90625 7.0625 -55.765625 7.0625 -72.234375 C 7.0625 -88.285156 10.015625 -101.914062 15.921875 -113.125 C 21.835938 -124.332031 29.878906 -132.859375 40.046875 -138.703125 C 50.222656 -144.546875 61.644531 -147.46875 74.3125 -147.46875 Z M 74.3125 -147.46875 "/></g></g></g><g fill="#ffffff" fill-opacity="1"><g transform="translate(263.326374, 205.397174)"><g><path d="M 79.703125 0 L 79.703125 -60.609375 L 44.828125 -60.609375 L 44.828125 0 L 10.796875 0 L 10.796875 -143.84375 L 44.828125 -143.84375 L 44.828125 -88.625 L 79.703125 -88.625 L 79.703125 -143.84375 L 113.75 -143.84375 L 113.75 0 Z M 79.703125 0 "/></g></g></g><g fill="#ffffff" fill-opacity="1"><g transform="translate(392.848595, 205.397174)"><g><path d="M 67.5625 3.53125 C 53.925781 3.53125 42.4375 0.644531 33.09375 -5.125 C 23.757812 -10.90625 16.6875 -19.414062 11.875 -30.65625 C 7.070312 -41.90625 4.671875 -55.765625 4.671875 -72.234375 C 4.671875 -84.472656 6.378906 -95.28125 9.796875 -104.65625 C 13.222656 -114.03125 17.976562 -121.882812 24.0625 -128.21875 C 30.15625 -134.550781 37.25 -139.34375 45.34375 -142.59375 C 53.445312 -145.84375 62.164062 -147.46875 71.5 -147.46875 C 82.019531 -147.46875 90.875 -145.84375 98.0625 -142.59375 C 105.257812 -139.34375 111.660156 -135.050781 117.265625 -129.71875 L 99.421875 -111.25 C 95.066406 -115.125 90.878906 -117.992188 86.859375 -119.859375 C 82.847656 -121.734375 78.285156 -122.671875 73.171875 -122.671875 C 68.328125 -122.671875 63.878906 -121.71875 59.828125 -119.8125 C 55.785156 -117.914062 52.257812 -114.941406 49.25 -110.890625 C 46.238281 -106.835938 43.898438 -101.613281 42.234375 -95.21875 C 40.578125 -88.820312 39.75 -81.09375 39.75 -72.03125 C 39.75 -59.5 40.769531 -49.53125 42.8125 -42.125 C 44.851562 -34.726562 47.945312 -29.421875 52.09375 -26.203125 C 56.25 -22.984375 61.507812 -21.375 67.875 -21.375 C 71.257812 -21.375 74.441406 -21.769531 77.421875 -22.5625 C 80.398438 -23.363281 83.164062 -24.421875 85.71875 -25.734375 L 85.71875 -58.640625 L 67.671875 -58.640625 L 64.34375 -82.5 L 117.890625 -82.5 L 117.890625 -11 C 110.703125 -6.570312 102.972656 -3.039062 94.703125 -0.40625 C 86.429688 2.21875 77.382812 3.53125 67.5625 3.53125 Z M 67.5625 3.53125 "/></g></g></g></g></g></g><g clip-path="url(#c0e381a3c8)"><g transform="matrix(1, 0, 0, 1, 835, 1)"><g clip-path="url(#1e4fad2f06)"><g fill="#545454" fill-opacity="1"><g transform="translate(0.462259, 205.397174)"><g><path d="M 15.929688 0 L 15.929688 -147.21875 L 56.71875 -147.21875 L 56.71875 -26.878906 L 53.34375 -26.878906 L 53.34375 -30.253906 L 119.5625 -30.253906 L 115.148438 3.371094 L 15.929688 3.371094 Z M 22.675781 0 L 19.304688 0 L 19.304688 -3.371094 L 112.191406 -3.371094 L 112.191406 0 L 108.847656 -0.4375 L 112.375 -27.320312 L 115.71875 -26.878906 L 115.71875 -23.507812 L 49.972656 -23.507812 L 49.972656 -143.84375 L 53.34375 -143.84375 L 53.34375 -140.472656 L 19.304688 -140.472656 L 19.304688 -143.84375 L 22.675781 -143.84375 Z M 22.675781 0 "/></g></g></g><g fill="#545454" fill-opacity="1"><g transform="translate(112.133524, 205.397174)"><g><path d="M 83.027344 -27.660156 L 40.890625 -27.660156 L 40.890625 -31.03125 L 44.167969 -30.230469 L 35.964844 3.371094 L -6.84375 3.371094 L 39.226562 -147.21875 L 85.523438 -147.21875 L 131.589844 3.371094 L 87.953125 3.371094 L 79.75 -30.230469 L 83.027344 -31.03125 Z M 85.675781 -34.402344 L 93.878906 -0.800781 L 90.601562 0 L 90.601562 -3.371094 L 127.03125 -3.371094 L 127.03125 0 L 123.804688 0.988281 L 79.800781 -142.855469 L 83.027344 -143.84375 L 83.027344 -140.472656 L 41.722656 -140.472656 L 41.722656 -143.84375 L 44.945312 -142.855469 L 0.941406 0.988281 L -2.285156 0 L -2.285156 -3.371094 L 33.316406 -3.371094 L 33.316406 0 L 30.039062 -0.800781 L 38.242188 -34.402344 Z M 46.289062 -59.105469 L 77.421875 -59.105469 L 77.421875 -55.730469 L 74.144531 -54.929688 L 58.578125 -118.550781 L 61.855469 -119.351562 L 65.132812 -118.550781 L 49.5625 -54.929688 L 46.289062 -55.730469 Z M 41.988281 -52.359375 L 58.578125 -120.152344 L 65.132812 -120.152344 L 81.71875 -52.359375 Z M 41.988281 -52.359375 "/></g></g></g><g fill="#545454" fill-opacity="1"><g transform="translate(223.804788, 205.397174)"><g><path d="M 80.070312 -43.484375 C 80.070312 -47.851562 79.273438 -51.222656 77.683594 -53.59375 C 76.128906 -55.910156 73.925781 -57.570312 71.070312 -58.566406 C 67.867188 -59.6875 64.066406 -60.246094 59.675781 -60.246094 L 45.664062 -60.246094 L 45.664062 -63.621094 L 49.039062 -63.621094 L 49.039062 -24.804688 L 45.664062 -24.804688 L 45.664062 -28.175781 L 58.222656 -28.175781 C 61.363281 -28.175781 64.351562 -28.40625 67.183594 -28.859375 C 69.808594 -29.285156 72.140625 -30.058594 74.1875 -31.183594 C 76 -32.183594 77.425781 -33.625 78.460938 -35.507812 C 79.535156 -37.460938 80.070312 -40.117188 80.070312 -43.484375 Z M 86.816406 -43.484375 C 86.816406 -38.964844 86 -35.222656 84.375 -32.261719 C 82.710938 -29.234375 80.398438 -26.902344 77.441406 -25.273438 C 74.710938 -23.773438 71.648438 -22.746094 68.253906 -22.199219 C 65.066406 -21.6875 61.722656 -21.429688 58.222656 -21.429688 L 42.292969 -21.429688 L 42.292969 -66.992188 L 59.675781 -66.992188 C 64.832031 -66.992188 69.371094 -66.308594 73.292969 -64.933594 C 77.566406 -63.441406 80.894531 -60.914062 83.285156 -57.351562 C 85.636719 -53.84375 86.816406 -49.21875 86.816406 -43.484375 Z M 74.671875 -103.679688 C 74.671875 -108.191406 73.363281 -111.371094 70.75 -113.226562 C 67.769531 -115.335938 62.902344 -116.394531 56.148438 -116.394531 L 45.664062 -116.394531 L 45.664062 -119.765625 L 49.039062 -119.765625 L 49.039062 -86.453125 L 45.664062 -86.453125 L 45.664062 -89.824219 L 57.183594 -89.824219 C 63.714844 -89.824219 68.3125 -90.917969 70.976562 -93.105469 C 73.441406 -95.128906 74.671875 -98.65625 74.671875 -103.679688 Z M 81.417969 -103.679688 C 81.417969 -96.527344 79.363281 -91.265625 75.257812 -87.890625 C 71.347656 -84.683594 65.324219 -83.078125 57.183594 -83.078125 L 42.292969 -83.078125 L 42.292969 -123.140625 L 56.148438 -123.140625 C 64.335938 -123.140625 70.503906 -121.667969 74.652344 -118.730469 C 79.164062 -115.53125 81.417969 -110.515625 81.417969 -103.679688 Z M 121.894531 -42.136719 C 121.894531 -33.226562 120.148438 -25.777344 116.660156 -19.785156 C 113.171875 -13.792969 108.390625 -9.085938 102.324219 -5.675781 C 96.464844 -2.378906 89.804688 -0.0390625 82.34375 1.34375 C 75.050781 2.695312 67.390625 3.371094 59.363281 3.371094 L 8.25 3.371094 L 8.25 -147.21875 L 57.183594 -147.21875 C 64.792969 -147.21875 72 -146.59375 78.808594 -145.34375 C 85.773438 -144.070312 91.972656 -141.941406 97.410156 -138.96875 C 103.050781 -135.882812 107.496094 -131.714844 110.75 -126.472656 C 114.027344 -121.191406 115.667969 -114.734375 115.667969 -107.105469 C 115.667969 -100.757812 114.304688 -95.230469 111.582031 -90.523438 C 108.894531 -85.878906 105.328125 -82.082031 100.875 -79.125 C 96.539062 -76.25 91.832031 -74.175781 86.75 -72.90625 L 85.933594 -76.175781 L 86.472656 -79.507812 C 91.910156 -78.625 97.28125 -76.921875 102.585938 -74.398438 C 108.140625 -71.753906 112.730469 -67.835938 116.355469 -62.644531 C 120.046875 -57.359375 121.894531 -50.523438 121.894531 -42.136719 Z M 115.148438 -42.136719 C 115.148438 -49.109375 113.707031 -54.65625 110.824219 -58.78125 C 107.878906 -63 104.167969 -66.175781 99.6875 -68.304688 C 94.960938 -70.554688 90.195312 -72.070312 85.394531 -72.847656 L 85.113281 -79.449219 C 89.445312 -80.53125 93.453125 -82.296875 97.144531 -84.746094 C 100.71875 -87.121094 103.585938 -90.171875 105.742188 -93.902344 C 107.859375 -97.5625 108.921875 -101.964844 108.921875 -107.105469 C 108.921875 -113.453125 107.621094 -118.722656 105.015625 -122.917969 C 102.386719 -127.152344 98.773438 -130.53125 94.171875 -133.050781 C 89.371094 -135.679688 83.84375 -137.566406 77.59375 -138.710938 C 71.1875 -139.882812 64.382812 -140.472656 57.183594 -140.472656 L 11.625 -140.472656 L 11.625 -143.84375 L 14.996094 -143.84375 L 14.996094 0 L 11.625 0 L 11.625 -3.371094 L 59.363281 -3.371094 C 66.976562 -3.371094 74.226562 -4.011719 81.113281 -5.289062 C 87.839844 -6.535156 93.808594 -8.625 99.015625 -11.554688 C 104.019531 -14.367188 107.957031 -18.242188 110.832031 -23.179688 C 113.710938 -28.121094 115.148438 -34.441406 115.148438 -42.136719 Z M 115.148438 -42.136719 "/></g></g></g><g fill="#ffffff" fill-opacity="1"><g transform="translate(0.462259, 205.397174)"><g><path d="M 19.296875 0 L 19.296875 -143.84375 L 53.34375 -143.84375 L 53.34375 -26.875 L 115.71875 -26.875 L 112.1875 0 Z M 19.296875 0 "/></g></g></g><g fill="#ffffff" fill-opacity="1"><g transform="translate(112.133524, 205.397174)"><g><path d="M 83.03125 -31.03125 L 40.890625 -31.03125 L 33.3125 0 L -2.28125 0 L 41.71875 -143.84375 L 83.03125 -143.84375 L 127.03125 0 L 90.59375 0 Z M 46.28125 -55.734375 L 77.421875 -55.734375 L 61.859375 -119.34375 Z M 46.28125 -55.734375 "/></g></g></g><g fill="#ffffff" fill-opacity="1"><g transform="translate(223.804788, 205.397174)"><g><path d="M 83.4375 -43.484375 C 83.4375 -48.535156 82.453125 -52.53125 80.484375 -55.46875 C 78.515625 -58.40625 75.742188 -60.5 72.171875 -61.75 C 68.609375 -63 64.441406 -63.625 59.671875 -63.625 L 45.65625 -63.625 L 45.65625 -24.796875 L 58.21875 -24.796875 C 61.539062 -24.796875 64.707031 -25.035156 67.71875 -25.515625 C 70.726562 -26.003906 73.425781 -26.90625 75.8125 -28.21875 C 78.195312 -29.539062 80.0625 -31.425781 81.40625 -33.875 C 82.757812 -36.332031 83.4375 -39.535156 83.4375 -43.484375 Z M 78.046875 -103.671875 C 78.046875 -109.347656 76.265625 -113.445312 72.703125 -115.96875 C 69.140625 -118.5 63.617188 -119.765625 56.140625 -119.765625 L 45.65625 -119.765625 L 45.65625 -86.453125 L 57.1875 -86.453125 C 64.519531 -86.453125 69.828125 -87.800781 73.109375 -90.5 C 76.398438 -93.195312 78.046875 -97.585938 78.046875 -103.671875 Z M 118.515625 -42.140625 C 118.515625 -33.835938 116.921875 -26.953125 113.734375 -21.484375 C 110.554688 -16.015625 106.195312 -11.722656 100.65625 -8.609375 C 95.125 -5.492188 88.8125 -3.28125 81.71875 -1.96875 C 74.632812 -0.65625 67.179688 0 59.359375 0 L 11.625 0 L 11.625 -143.84375 L 57.1875 -143.84375 C 64.582031 -143.84375 71.582031 -143.234375 78.1875 -142.015625 C 84.800781 -140.804688 90.664062 -138.800781 95.78125 -136 C 100.90625 -133.195312 104.9375 -129.425781 107.875 -124.6875 C 110.820312 -119.945312 112.296875 -114.085938 112.296875 -107.109375 C 112.296875 -101.359375 111.082031 -96.390625 108.65625 -92.203125 C 106.238281 -88.023438 103.019531 -84.601562 99 -81.9375 C 94.988281 -79.269531 90.632812 -77.347656 85.9375 -76.171875 C 91.050781 -75.347656 96.113281 -73.738281 101.125 -71.34375 C 106.144531 -68.957031 110.296875 -65.410156 113.578125 -60.703125 C 116.867188 -56.003906 118.515625 -49.816406 118.515625 -42.140625 Z M 118.515625 -42.140625 "/></g></g></g></g></g></g></g></g></svg>